<svg height="800" width="800" version="1.1" id="Layer_1" xmlns="http://www.w3.org/2000/svg" viewBox="0 0 512 512" xml:space="preserve"><path style="fill:#fff" d="M256 504C119.248 504 8 392.752 8 256S119.248 8 256 8s248 111.248 248 248-111.248 248-248 248z"/><path style="fill:#e8e8e8" d="M256 16c132.336 0 240 107.664 240 240S388.336 496 256 496 16 388.336 16 256 123.664 16 256 16m0-16C114.608 0 0 114.608 0 256c0 141.376 114.608 256 256 256s256-114.624 256-256C512 114.608 397.392 0 256 0z"/><path style="fill:#8ad5dd" d="M306.8 360.048 233.776 288.8h176.24v-66.448h-176.24L306.8 151.12l-46.512-47.424-155.712 151.888 155.712 151.888z"/></svg>